<svg xmlns="http://www.w3.org/2000/svg" width="94" height="28" viewBox="0 0 94 28" fill="none" data-astro-cid-hpnw4vwy=""> <path d="M44.307 28C46.9275 28 47.9318 26.7029 49.4755 24.3614C49.9787 23.6059 50.4094 23.6401 50.3731 24.6846C50.3731 25.1533 50.194 27.0989 49.4051 27.0989C49.0469 27.0989 48.9019 27.1717 48.9019 27.3879C48.9019 27.6404 49.0448 27.7111 49.4392 27.7111C50.2281 27.7111 51.4136 27.4949 52.6333 27.4949H54.2836C56.0789 27.4949 57.1898 27.6747 58.9851 27.6747C59.5586 27.6747 59.7377 27.5676 59.7377 27.3515C59.7377 27.3151 59.7377 27.2787 59.7015 27.2787C59.629 27.1353 59.4499 27.0989 59.0192 27.0989C56.1834 27.0989 54.1748 26.5938 53.9595 23.9291C53.9232 23.7493 53.9232 23.5695 53.9232 23.3533V15.1023C53.9232 12.9041 55.1791 10.9586 56.3284 10.9586C57.7996 10.9586 57.3326 12.6516 59.0554 12.6516C60.0234 12.6516 60.9574 11.8597 60.9574 10.2737C60.9574 8.94022 60.1322 8.22107 58.7676 8.22107C57.1173 8.22107 55.7164 9.40896 54.6034 11.5365C54.1727 12.3648 53.9211 12.3284 53.9936 11.3931C54.0661 10.3122 54.1727 9.44748 54.1727 8.87173C54.1727 8.58279 54.0661 8.22321 53.5991 8.22321C52.4861 8.22321 51.0874 9.19492 48.9339 9.55664C48.5757 9.62941 48.4307 9.70005 48.4307 9.87983C48.4307 10.1324 48.5373 10.203 48.8614 10.203C50.4414 10.203 50.4051 12.4012 50.4051 14.0578V19.1026C50.4051 21.8765 49.4712 25.7676 45.9915 25.7676C43.7655 25.7676 43.0853 23.7493 43.0853 20.3269V8.97875C43.0853 8.11405 43.516 7.39275 44.0533 7.39275H47.5714C48.0021 7.39275 48.2175 7.21296 48.2175 6.92402C48.2175 6.60082 48.0021 6.31188 47.6077 6.31188C46.9979 6.31188 45.4179 6.67146 44.3049 6.67146C43.5522 6.67146 43.0128 6.31188 43.0128 5.5542V1.87922C43.0128 1.41049 42.9765 1.30347 42.6546 1.30347C42.403 1.30347 42.3326 1.44687 42.2601 1.87922C41.9382 5.5542 39.6397 6.5623 36.7335 6.5623C36.339 6.5623 36.1962 6.88549 36.1962 7.10167C36.1962 7.31784 36.339 7.39061 36.7335 7.39061H38.5629C39.1002 7.39061 39.5309 8.21893 39.5309 8.76043V21.2986C39.5309 26.414 42.1151 28 44.3049 28H44.307Z" fill="#232323" data-astro-cid-hpnw4vwy=""></path> <path d="M60.5821 18.3214C60.5821 12.3541 63.4456 7.47837 67.9765 7.47837C71.3475 7.47837 73.6311 10.1709 73.6311 13.1546C73.6311 15.1922 73.1962 15.8471 70.5864 15.8471H65.548C64.6418 15.8471 64.0256 16.4657 63.9893 17.3026V18.0667C63.9893 22.2874 65.7292 25.2711 68.7377 25.2711C70.3689 25.2711 72.5437 24.2886 73.8486 19.7768C73.9936 19.4129 74.0661 19.3402 74.2111 19.3402C74.4286 19.3402 74.4286 19.4857 74.3561 19.8496C73.0512 25.5258 70.6589 28 67.2516 28C63.1557 28 60.5821 24.5433 60.5821 18.3214ZM65.548 15.3741H68.0128C69.6802 15.3741 70.1151 14.5736 70.1151 13.0454C70.1151 10.4984 69.3539 8.24247 67.5053 8.24247C65.7655 8.24247 64.4968 10.462 64.1343 13.8459C64.0981 14.7192 64.678 15.3741 65.548 15.3741Z" fill="#232323" data-astro-cid-hpnw4vwy=""></path> <path d="M72.5416 27.5998C72.1429 27.5998 71.9979 27.527 71.9979 27.2723C71.9979 27.054 72.1429 26.9812 72.5053 26.9812C74.8977 26.9812 76.0938 26.399 76.0938 23.2698L76.1301 4.58462C76.1301 2.36508 75.5864 2.18315 74.9702 2.18315C74.0277 2.18315 72.9765 2.36508 72.6141 2.40147C72.2878 2.43785 72.1791 2.36508 72.1791 2.14677C72.1791 1.96484 72.3241 1.85568 72.6866 1.78291C74.8252 1.41905 78.1599 0 79.2473 0C79.6461 0 79.9147 0.254701 79.8998 0.654946C79.7847 3.57652 79.6098 3.69424 79.6098 6.60511V14.7555C79.6098 16.5021 80.371 16.4657 81.0597 15.7743L85.1919 11.3353C86.678 9.77068 86.5693 8.56994 82.3284 8.56994C82.0384 8.56994 81.9296 8.49717 81.9296 8.27886C81.9296 8.02415 82.0384 7.95138 82.3646 7.95138C83.4883 7.95138 85.6631 8.09693 88.5266 8.13331C89.6141 8.13331 90.9552 7.98777 92.2239 7.98777C92.5501 7.98777 92.6589 8.06054 92.6589 8.27886C92.6589 8.49717 92.5501 8.60633 92.2601 8.60633C90.2303 8.56994 88.4904 8.89742 86.4243 11.1897L83.9595 13.8823C83.452 14.4281 83.4158 14.9011 83.7783 15.4833L88.5266 23.8156C90.0853 26.5082 91.8252 26.9812 93.6013 26.9812C93.8913 26.9812 94 27.054 94 27.2723C94 27.4906 93.8913 27.5998 93.565 27.5998C92.5139 27.5998 90.9915 27.4178 89.9041 27.4178H87.3667C85.7719 27.4178 84.5757 27.527 83.1983 27.527H83.0171C81.5672 27.527 80.4072 27.4178 78.9211 27.4178H76.9275C75.6226 27.4178 74.0277 27.5998 72.5416 27.5998ZM83.0171 27.0176H83.1983C85.9531 27.0176 85.7719 25.926 84.3582 23.4154L80.8785 17.1934C80.3348 16.2474 79.6098 16.7204 79.6098 18.0667V22.8332C79.6098 25.6349 80.226 27.0176 83.0171 27.0176Z" fill="#232323" data-astro-cid-hpnw4vwy=""></path> <path d="M30.2537 27.1781C26.5906 27.1781 24.9211 20.085 24.9211 14.7983C24.9211 11.5472 25.7719 8.36233 27.8316 8.36233C31.3646 8.36233 33.1301 15.4554 33.1301 20.7421C33.1301 23.9933 32.3454 27.1781 30.2516 27.1781H30.2537ZM29.0448 28C33.919 28 36.8635 23.501 36.8635 17.6236C36.8635 12.14 33.7228 7.47623 29.0448 7.47623C24.1045 7.47623 21.2601 11.9752 21.2601 17.8526V18.4434C21.2601 23.2056 15.9936 26.8827 12.5267 26.8827H10.3348C8.66738 26.8827 8.30704 26.2599 8.30704 24.5519V5.21174C8.30704 2.09326 9.68017 1.53463 12.0362 1.53463C12.3966 1.53463 12.5267 1.43617 12.5267 1.20715C12.5267 0.978138 12.3966 0.911787 12.0362 0.911787C10.467 0.911787 8.20895 1.07659 7.03198 1.07659H5.56077C4.34968 1.07659 2.0597 0.911787 0.522388 0.911787C0.130064 0.911787 0.0319829 0.978138 0 1.20715C0 1.43617 0.130064 1.53463 0.490405 1.53463C2.87846 1.53463 4.2516 2.09326 4.18763 5.21174V23.2399C4.18763 26.3926 2.87846 26.9833 0.490405 26.9833C0.130064 26.9833 0 27.0818 0 27.2787C0 27.5077 0.130064 27.5741 0.522388 27.5741C2.0597 27.5741 4.3177 27.4093 5.56077 27.4093H14.7207C16.6183 27.4093 17.6652 27.5741 18.6141 27.5741C19.3006 27.5741 19.4328 27.2466 19.4328 26.6216C19.4328 25.1448 19.9552 23.1735 20.9701 23.0751C21.7228 23.0087 21.9851 23.0751 23.194 24.8473C24.0768 26.1614 26.1386 28 29.049 28H29.0448Z" fill="#232323" data-astro-cid-hpnw4vwy=""></path> </svg>